# Blender 4.3.2
# www.blender.org
mtllib TestingArea.mtl
o TestingArea
v 0.000000 0.000000 0.000000
v 400.000000 -400.000000 0.000000
v 0.000000 -400.000000 0.000000
v 400.000000 -800.000000 0.000000
v 0.000000 -800.000000 0.000000
v 0.000000 -1200.000000 0.000000
v 0.000000 -1600.000000 0.000000
v 0.000000 -2000.000000 0.000000
v 0.000000 -2400.000000 0.000000
v 400.000000 -2400.000000 0.000000
v 400.000000 -2800.000000 0.000000
v 0.000000 -2800.000000 0.000000
v 0.000000 -3200.000000 0.000000
v 0.000000 -3600.000000 0.000000
v 0.000000 -4000.000000 0.000000
v 400.000000 -4000.000000 0.000000
v 400.000000 0.000000 0.000000
v 400.000000 -1200.000000 0.000000
v 400.000000 -1600.000000 0.000000
v 800.000000 -1600.000000 0.000000
v 400.000000 -2000.000000 0.000000
v 800.000000 -2000.000000 0.000000
v 800.000000 -2400.000000 0.000000
v 400.000000 -3200.000000 0.000000
v 400.000000 -3600.000000 0.000000
v 800.000000 -4000.000000 0.000000
v 1200.000000 0.000000 0.000000
v 800.000000 0.000000 0.000000
v 1200.000000 -400.000000 0.000000
v 800.000000 -400.000000 0.000000
v 1200.000000 -800.000000 0.000000
v 800.000000 -800.000000 0.000000
v 800.000000 -1200.000000 0.000000
v 800.000000 -2800.000000 0.000000
v 1200.000000 -2800.000000 0.000000
v 800.000000 -3200.000000 0.000000
v 800.000000 -3600.000000 0.000000
v 1200.000000 -3600.000000 0.000000
v 1600.000000 0.000000 0.000000
v 1600.000000 -400.000000 0.000000
v 1600.000000 -800.000000 0.000000
v 1600.000000 -1200.000000 0.000000
v 1200.000000 -1200.000000 0.000000
v 1600.000000 -1600.000000 0.000000
v 1200.000000 -1600.000000 0.000000
v 1600.000000 -2000.000000 0.000000
v 1200.000000 -2000.000000 0.000000
v 1200.000000 -2400.000000 0.000000
v 1600.000000 -2800.000000 0.000000
v 1600.000000 -3200.000000 0.000000
v 1200.000000 -3200.000000 0.000000
v 1600.000000 -3600.000000 0.000000
v 1200.000000 -4000.000000 0.000000
v 1600.000000 -2400.000000 0.000000
v 2000.000000 -3200.000000 0.000000
v 1600.000000 -4000.000000 0.000000
v 2400.000000 0.000000 0.000000
v 2000.000000 0.000000 0.000000
v 2000.000000 -400.000000 0.000000
v 2000.000000 -800.000000 0.000000
v 2000.000000 -1200.000000 0.000000
v 2000.000000 -1600.000000 0.000000
v 2400.000000 -2000.000000 0.000000
v 2000.000000 -2000.000000 0.000000
v 2000.000000 -2400.000000 0.000000
v 2000.000000 -2800.000000 0.000000
v 2000.000000 -3600.000000 0.000000
v 2000.000000 -4000.000000 0.000000
v 2400.000000 -400.000000 0.000000
v 2400.000000 -800.000000 0.000000
v 2400.000000 -1200.000000 0.000000
v 2400.000000 -1600.000000 0.000000
v 2400.000000 -2400.000000 0.000000
v 2800.000000 -2400.000000 0.000000
v 2400.000000 -2800.000000 0.000000
v 2800.000000 -2800.000000 0.000000
v 2800.000000 -3200.000000 0.000000
v 2400.000000 -3200.000000 0.000000
v 2800.000000 -3600.000000 0.000000
v 2400.000000 -3600.000000 0.000000
v 2400.000000 -4000.000000 0.000000
v 2800.000000 -4000.000000 0.000000
v 2800.000000 0.000000 0.000000
v 3200.000000 -400.000000 0.000000
v 2800.000000 -400.000000 0.000000
v 3200.000000 -800.000000 0.000000
v 2800.000000 -800.000000 0.000000
v 2800.000000 -1200.000000 0.000000
v 3200.000000 -1200.000000 0.000000
v 2800.000000 -1600.000000 0.000000
v 3200.000000 -1600.000000 0.000000
v 2800.000000 -2000.000000 0.000000
v 3200.000000 -2000.000000 0.000000
v 3200.000000 -2400.000000 0.000000
v 3200.000000 -2800.000000 0.000000
v 3200.000000 -4000.000000 0.000000
v 3600.000000 0.000000 0.000000
v 3200.000000 0.000000 0.000000
v 3600.000000 -2000.000000 0.000000
v 3600.000000 -2800.000000 0.000000
v 3200.000000 -3200.000000 0.000000
v 3600.000000 -3200.000000 0.000000
v 3200.000000 -3600.000000 0.000000
v 3600.000000 -4000.000000 0.000000
v 4000.000000 0.000000 0.000000
v 4000.000000 -400.000000 0.000000
v 3600.000000 -400.000000 0.000000
v 3600.000000 -800.000000 0.000000
v 4000.000000 -800.000000 0.000000
v 4000.000000 -1200.000000 0.000000
v 3600.000000 -1200.000000 0.000000
v 4000.000000 -1600.000000 0.000000
v 3600.000000 -1600.000000 0.000000
v 4000.000000 -2000.000000 0.000000
v 4000.000000 -2400.000000 0.000000
v 3600.000000 -2400.000000 0.000000
v 4000.000000 -2800.000000 0.000000
v 4000.000000 -3200.000000 0.000000
v 4000.000000 -3600.000000 0.000000
v 3600.000000 -3600.000000 0.000000
v 4000.000000 -4000.000000 0.000000
v 0.000000 0.000000 400.000000
v 0.000000 -400.000000 400.000000
v 0.000000 -800.000000 400.000000
v 0.000000 -1200.000000 400.000000
v 0.000000 -1600.000000 400.000000
v 0.000000 -2000.000000 400.000000
v 0.000000 -2400.000000 400.000000
v 0.000000 -2800.000000 400.000000
v 0.000000 -3200.000000 400.000000
v 0.000000 -3600.000000 400.000000
v 0.000000 -4000.000000 400.000000
v 400.000000 -4000.000000 400.000000
v 400.000000 0.000000 400.000000
v 800.000000 -4000.000000 400.000000
v 1200.000000 0.000000 400.000000
v 800.000000 0.000000 400.000000
v 1600.000000 0.000000 400.000000
v 1200.000000 -4000.000000 400.000000
v 1600.000000 -4000.000000 400.000000
v 2400.000000 0.000000 400.000000
v 2000.000000 0.000000 400.000000
v 2000.000000 -4000.000000 400.000000
v 2400.000000 -4000.000000 400.000000
v 2800.000000 -4000.000000 400.000000
v 2800.000000 0.000000 400.000000
v 3200.000000 -4000.000000 400.000000
v 3600.000000 0.000000 400.000000
v 3200.000000 0.000000 400.000000
v 3600.000000 -4000.000000 400.000000
v 4000.000000 0.000000 400.000000
v 4000.000000 -400.000000 400.000000
v 4000.000000 -800.000000 400.000000
v 4000.000000 -1200.000000 400.000000
v 4000.000000 -1600.000000 400.000000
v 4000.000000 -2000.000000 400.000000
v 4000.000000 -2400.000000 400.000000
v 4000.000000 -2800.000000 400.000000
v 4000.000000 -3200.000000 400.000000
v 4000.000000 -3600.000000 400.000000
v 4000.000000 -4000.000000 400.000000
v 0.000000 0.000000 800.000000
v 0.000000 -400.000000 800.000000
v 0.000000 -800.000000 800.000000
v 0.000000 -1200.000000 800.000000
v 0.000000 -1600.000000 800.000000
v 0.000000 -2000.000000 800.000000
v 0.000000 -2400.000000 800.000000
v 0.000000 -2800.000000 800.000000
v 0.000000 -3200.000000 800.000000
v 0.000000 -3600.000000 800.000000
v 0.000000 -4000.000000 800.000000
v 400.000000 -4000.000000 800.000000
v 400.000000 0.000000 800.000000
v 800.000000 -4000.000000 800.000000
v 1200.000000 0.000000 800.000000
v 800.000000 0.000000 800.000000
v 1600.000000 0.000000 800.000000
v 1200.000000 -4000.000000 800.000000
v 1600.000000 -4000.000000 800.000000
v 2400.000000 0.000000 800.000000
v 2000.000000 0.000000 800.000000
v 2000.000000 -4000.000000 800.000000
v 2400.000000 -4000.000000 800.000000
v 2800.000000 -4000.000000 800.000000
v 2800.000000 0.000000 800.000000
v 3200.000000 -4000.000000 800.000000
v 3600.000000 0.000000 800.000000
v 3200.000000 0.000000 800.000000
v 3600.000000 -4000.000000 800.000000
v 4000.000000 0.000000 800.000000
v 4000.000000 -400.000000 800.000000
v 4000.000000 -800.000000 800.000000
v 4000.000000 -1200.000000 800.000000
v 4000.000000 -1600.000000 800.000000
v 4000.000000 -2000.000000 800.000000
v 4000.000000 -2400.000000 800.000000
v 4000.000000 -2800.000000 800.000000
v 4000.000000 -3200.000000 800.000000
v 4000.000000 -3600.000000 800.000000
v 4000.000000 -4000.000000 800.000000
v 0.000000 0.000000 1200.000000
v 0.000000 -400.000000 1200.000000
v 0.000000 -800.000000 1200.000000
v 0.000000 -1200.000000 1200.000000
v 0.000000 -1600.000000 1200.000000
v 0.000000 -2000.000000 1200.000000
v 0.000000 -2400.000000 1200.000000
v 0.000000 -2800.000000 1200.000000
v 0.000000 -3200.000000 1200.000000
v 0.000000 -3600.000000 1200.000000
v 0.000000 -4000.000000 1200.000000
v 400.000000 -4000.000000 1200.000000
v 400.000000 0.000000 1200.000000
v 800.000000 -4000.000000 1200.000000
v 1200.000000 0.000000 1200.000000
v 800.000000 0.000000 1200.000000
v 1600.000000 0.000000 1200.000000
v 1200.000000 -4000.000000 1200.000000
v 1600.000000 -4000.000000 1200.000000
v 2400.000000 0.000000 1200.000000
v 2000.000000 0.000000 1200.000000
v 2000.000000 -4000.000000 1200.000000
v 2400.000000 -4000.000000 1200.000000
v 2800.000000 -4000.000000 1200.000000
v 2800.000000 0.000000 1200.000000
v 3200.000000 -4000.000000 1200.000000
v 3600.000000 0.000000 1200.000000
v 3200.000000 0.000000 1200.000000
v 3600.000000 -4000.000000 1200.000000
v 4000.000000 0.000000 1200.000000
v 4000.000000 -400.000000 1200.000000
v 4000.000000 -800.000000 1200.000000
v 4000.000000 -1200.000000 1200.000000
v 4000.000000 -1600.000000 1200.000000
v 4000.000000 -2000.000000 1200.000000
v 4000.000000 -2400.000000 1200.000000
v 4000.000000 -2800.000000 1200.000000
v 4000.000000 -3200.000000 1200.000000
v 4000.000000 -3600.000000 1200.000000
v 4000.000000 -4000.000000 1200.000000
v 0.000000 0.000000 1600.000000
v 0.000000 -400.000000 1600.000000
v 0.000000 -800.000000 1600.000000
v 0.000000 -1200.000000 1600.000000
v 0.000000 -1600.000000 1600.000000
v 0.000000 -2000.000000 1600.000000
v 0.000000 -2400.000000 1600.000000
v 0.000000 -2800.000000 1600.000000
v 0.000000 -3200.000000 1600.000000
v 0.000000 -3600.000000 1600.000000
v 0.000000 -4000.000000 1600.000000
v 400.000000 -4000.000000 1600.000000
v 400.000000 0.000000 1600.000000
v 800.000000 -4000.000000 1600.000000
v 1200.000000 0.000000 1600.000000
v 800.000000 0.000000 1600.000000
v 1600.000000 0.000000 1600.000000
v 1200.000000 -4000.000000 1600.000000
v 1600.000000 -4000.000000 1600.000000
v 2400.000000 0.000000 1600.000000
v 2000.000000 0.000000 1600.000000
v 2000.000000 -4000.000000 1600.000000
v 2400.000000 -4000.000000 1600.000000
v 2800.000000 -4000.000000 1600.000000
v 2800.000000 0.000000 1600.000000
v 3200.000000 -4000.000000 1600.000000
v 3600.000000 0.000000 1600.000000
v 3200.000000 0.000000 1600.000000
v 3600.000000 -4000.000000 1600.000000
v 4000.000000 0.000000 1600.000000
v 4000.000000 -400.000000 1600.000000
v 4000.000000 -800.000000 1600.000000
v 4000.000000 -1200.000000 1600.000000
v 4000.000000 -1600.000000 1600.000000
v 4000.000000 -2000.000000 1600.000000
v 4000.000000 -2400.000000 1600.000000
v 4000.000000 -2800.000000 1600.000000
v 4000.000000 -3200.000000 1600.000000
v 4000.000000 -3600.000000 1600.000000
v 4000.000000 -4000.000000 1600.000000
v 0.000000 -2000.000000 2000.000000
v 0.000000 -3600.000000 2000.000000
v 1200.000000 0.000000 2000.000000
v 2400.000000 0.000000 2000.000000
v 2800.000000 0.000000 2000.000000
v 3600.000000 -4000.000000 2000.000000
v 4000.000000 0.000000 2000.000000
v 4000.000000 -400.000000 2000.000000
v 4000.000000 -800.000000 2000.000000
v 4000.000000 -1200.000000 2000.000000
v 4000.000000 -1600.000000 2000.000000
v 4000.000000 -2000.000000 2000.000000
v 4000.000000 -2400.000000 2000.000000
v 4000.000000 -3600.000000 2000.000000
v 1200.000000 1200.000000 2000.000000
v 800.000000 1200.000000 2000.000000
v 800.000000 0.000000 2000.000000
v 400.000000 400.000000 2000.000000
v 1200.000000 400.000000 2000.000000
v 400.000000 1200.000000 2000.000000
v 400.000000 0.000000 2000.000000
v 400.000000 800.000000 2000.000000
v 800.000000 400.000000 2000.000000
v 800.000000 800.000000 2000.000000
v 1600.000000 1200.000000 2000.000000
v 1600.000000 800.000000 2000.000000
v 1200.000000 800.000000 2000.000000
v 1600.000000 400.000000 2000.000000
v 2000.000000 800.000000 2000.000000
v 1600.000000 0.000000 2000.000000
v 2000.000000 1200.000000 2000.000000
v 2000.000000 400.000000 2000.000000
v 2000.000000 0.000000 2000.000000
v 2400.000000 1200.000000 2000.000000
v 2800.000000 1200.000000 2000.000000
v 2800.000000 800.000000 2000.000000
v 2400.000000 800.000000 2000.000000
v 2800.000000 400.000000 2000.000000
v 2400.000000 400.000000 2000.000000
v 3200.000000 1200.000000 2000.000000
v 3200.000000 0.000000 2000.000000
v 3600.000000 1200.000000 2000.000000
v 3200.000000 800.000000 2000.000000
v 3600.000000 800.000000 2000.000000
v 3200.000000 400.000000 2000.000000
v 3600.000000 0.000000 2000.000000
v 4000.000000 800.000000 2000.000000
v 3600.000000 400.000000 2000.000000
v -1200.000000 1200.000000 2000.000000
v -1200.000000 800.000000 2000.000000
v -1200.000000 400.000000 2000.000000
v -1200.000000 0.000000 2000.000000
v -800.000000 1200.000000 2000.000000
v -800.000000 0.000000 2000.000000
v -400.000000 1200.000000 2000.000000
v -800.000000 800.000000 2000.000000
v -400.000000 800.000000 2000.000000
v -800.000000 400.000000 2000.000000
v -400.000000 0.000000 2000.000000
v 0.000000 1200.000000 2000.000000
v 0.000000 800.000000 2000.000000
v 0.000000 400.000000 2000.000000
v -400.000000 400.000000 2000.000000
v 0.000000 0.000000 2000.000000
v -1200.000000 -2400.000000 2000.000000
v -1200.000000 -2800.000000 2000.000000
v -1200.000000 -3200.000000 2000.000000
v -1200.000000 -3600.000000 2000.000000
v -800.000000 -400.000000 2000.000000
v -1200.000000 -400.000000 2000.000000
v -800.000000 -800.000000 2000.000000
v -1200.000000 -800.000000 2000.000000
v -1200.000000 -1200.000000 2000.000000
v -800.000000 -1200.000000 2000.000000
v -1200.000000 -1600.000000 2000.000000
v -800.000000 -1600.000000 2000.000000
v -1200.000000 -2000.000000 2000.000000
v -800.000000 -2000.000000 2000.000000
v -800.000000 -2400.000000 2000.000000
v -800.000000 -2800.000000 2000.000000
v -800.000000 -4000.000000 2000.000000
v -400.000000 -2000.000000 2000.000000
v -400.000000 -2800.000000 2000.000000
v -800.000000 -3200.000000 2000.000000
v -400.000000 -3200.000000 2000.000000
v -800.000000 -3600.000000 2000.000000
v -400.000000 -4000.000000 2000.000000
v 0.000000 -400.000000 2000.000000
v -400.000000 -400.000000 2000.000000
v -400.000000 -800.000000 2000.000000
v 0.000000 -800.000000 2000.000000
v 0.000000 -1200.000000 2000.000000
v -400.000000 -1200.000000 2000.000000
v 0.000000 -1600.000000 2000.000000
v -400.000000 -1600.000000 2000.000000
v 0.000000 -2400.000000 2000.000000
v -400.000000 -2400.000000 2000.000000
v 0.000000 -2800.000000 2000.000000
v 0.000000 -3200.000000 2000.000000
v -400.000000 -3600.000000 2000.000000
v -1200.000000 -4000.000000 2000.000000
v -800.000000 -4400.000000 2000.000000
v -1200.000000 -4400.000000 2000.000000
v -800.000000 -4800.000000 2000.000000
v -1200.000000 -4800.000000 2000.000000
v -1200.000000 -5200.000000 2000.000000
v -800.000000 -5200.000000 2000.000000
v -400.000000 -4400.000000 2000.000000
v -400.000000 -4800.000000 2000.000000
v -400.000000 -5200.000000 2000.000000
v 800.000000 -5200.000000 2000.000000
v 800.000000 -4800.000000 2000.000000
v 1200.000000 -4800.000000 2000.000000
v 800.000000 -4400.000000 2000.000000
v 1200.000000 -4400.000000 2000.000000
v 800.000000 -4000.000000 2000.000000
v 1200.000000 -4000.000000 2000.000000
v 1200.000000 -5200.000000 2000.000000
v 1600.000000 -5200.000000 2000.000000
v 1600.000000 -4800.000000 2000.000000
v 1600.000000 -4400.000000 2000.000000
v 1600.000000 -4000.000000 2000.000000
v 0.000000 -5200.000000 2000.000000
v 0.000000 -4800.000000 2000.000000
v 400.000000 -4800.000000 2000.000000
v 0.000000 -4400.000000 2000.000000
v 400.000000 -4400.000000 2000.000000
v 0.000000 -4000.000000 2000.000000
v 400.000000 -5200.000000 2000.000000
v 400.000000 -4000.000000 2000.000000
v 2400.000000 -4000.000000 2000.000000
v 2000.000000 -4000.000000 2000.000000
v 2000.000000 -4400.000000 2000.000000
v 2000.000000 -4800.000000 2000.000000
v 2000.000000 -5200.000000 2000.000000
v 2400.000000 -4400.000000 2000.000000
v 2400.000000 -4800.000000 2000.000000
v 2400.000000 -5200.000000 2000.000000
v 2800.000000 -4000.000000 2000.000000
v 3200.000000 -4400.000000 2000.000000
v 2800.000000 -4400.000000 2000.000000
v 3200.000000 -4800.000000 2000.000000
v 2800.000000 -4800.000000 2000.000000
v 2800.000000 -5200.000000 2000.000000
v 3200.000000 -5200.000000 2000.000000
v 3200.000000 -4000.000000 2000.000000
v 3600.000000 -4400.000000 2000.000000
v 3600.000000 -4800.000000 2000.000000
v 4000.000000 -5200.000000 2000.000000
v 3600.000000 -5200.000000 2000.000000
v 4800.000000 -5200.000000 2000.000000
v 4800.000000 -4800.000000 2000.000000
v 5200.000000 -4800.000000 2000.000000
v 4800.000000 -4400.000000 2000.000000
v 5200.000000 -4400.000000 2000.000000
v 5200.000000 -5200.000000 2000.000000
v 4000.000000 -4800.000000 2000.000000
v 4400.000000 -4800.000000 2000.000000
v 4000.000000 -4400.000000 2000.000000
v 4400.000000 -4400.000000 2000.000000
v 4000.000000 -4000.000000 2000.000000
v 4400.000000 -5200.000000 2000.000000
v 5200.000000 -2800.000000 2000.000000
v 4800.000000 -2800.000000 2000.000000
v 4800.000000 -1200.000000 2000.000000
v 4800.000000 -800.000000 2000.000000
v 5200.000000 -800.000000 2000.000000
v 4800.000000 -400.000000 2000.000000
v 5200.000000 -400.000000 2000.000000
v 4800.000000 -4000.000000 2000.000000
v 4400.000000 -3600.000000 2000.000000
v 5200.000000 -2400.000000 2000.000000
v 5200.000000 -2000.000000 2000.000000
v 5200.000000 -1600.000000 2000.000000
v 5200.000000 -1200.000000 2000.000000
v 5200.000000 -3600.000000 2000.000000
v 4400.000000 -2800.000000 2000.000000
v 4400.000000 -2400.000000 2000.000000
v 4400.000000 -800.000000 2000.000000
v 4400.000000 -400.000000 2000.000000
v 4800.000000 -2400.000000 2000.000000
v 4800.000000 -2000.000000 2000.000000
v 4400.000000 -2000.000000 2000.000000
v 4800.000000 -1600.000000 2000.000000
v 4400.000000 -1600.000000 2000.000000
v 4400.000000 -1200.000000 2000.000000
v 4400.000000 0.000000 2000.000000
v 4400.000000 -4000.000000 2000.000000
v 4000.000000 -3200.000000 2000.000000
v 4400.000000 -3200.000000 2000.000000
v 4800.000000 -3600.000000 2000.000000
v 4800.000000 -3200.000000 2000.000000
v 4000.000000 -2800.000000 2000.000000
v 5200.000000 -3200.000000 2000.000000
v 5200.000000 -4000.000000 2000.000000
v 5200.000000 1200.000000 2000.000000
v 4800.000000 1200.000000 2000.000000
v 4800.000000 0.000000 2000.000000
v 4400.000000 400.000000 2000.000000
v 5200.000000 400.000000 2000.000000
v 4400.000000 1200.000000 2000.000000
v 4000.000000 400.000000 2000.000000
v 4400.000000 800.000000 2000.000000
v 4800.000000 400.000000 2000.000000
v 4800.000000 800.000000 2000.000000
v 4000.000000 1200.000000 2000.000000
v 5200.000000 800.000000 2000.000000
v 5200.000000 0.000000 2000.000000
vn -0.0000 -0.0000 1.0000
vn -0.0000 -1.0000 -0.0000
vn -1.0000 -0.0000 -0.0000
vn -0.0000 1.0000 -0.0000
vn 1.0000 -0.0000 -0.0000
vt 0.000000 0.500000
vt 0.000000 0.750000
vt 0.250000 0.750000
vt 0.250000 0.500000
vt 0.000000 0.250000
vt 0.250000 0.250000
vt 0.000000 1.000000
vt 0.250000 1.000000
s 0
usemtl Material
f 1/1/1 3/2/1 2/3/1 17/4/1
f 3/1/1 5/2/1 4/3/1 2/4/1
f 5/1/1 6/2/1 18/3/1 4/4/1
f 6/1/1 7/2/1 19/3/1 18/4/1
f 7/1/1 8/2/1 21/3/1 19/4/1
f 8/1/1 9/2/1 10/3/1 21/4/1
f 9/1/1 12/2/1 11/3/1 10/4/1
f 12/1/1 13/2/1 24/3/1 11/4/1
f 13/1/1 14/2/1 25/3/1 24/4/1
f 14/1/1 15/2/1 16/3/1 25/4/1
f 17/1/1 2/2/1 30/3/1 28/4/1
f 2/5/1 4/1/1 32/4/1 30/6/1
f 4/5/1 18/1/1 33/4/1 32/6/1
f 18/5/1 19/1/1 20/4/1 33/6/1
f 19/5/1 21/1/1 22/4/1 20/6/1
f 21/5/1 10/1/1 23/4/1 22/6/1
f 10/5/1 11/1/1 34/4/1 23/6/1
f 11/5/1 24/1/1 36/4/1 34/6/1
f 24/5/1 25/1/1 37/4/1 36/6/1
f 25/1/1 16/2/1 26/3/1 37/4/1
f 28/1/1 30/2/1 29/3/1 27/4/1
f 30/5/1 32/1/1 31/4/1 29/6/1
f 32/5/1 33/1/1 43/4/1 31/6/1
f 33/5/1 20/1/1 45/4/1 43/6/1
f 20/5/1 22/1/1 47/4/1 45/6/1
f 22/5/1 23/1/1 48/4/1 47/6/1
f 23/5/1 34/1/1 35/4/1 48/6/1
f 34/5/1 36/1/1 51/4/1 35/6/1
f 36/5/1 37/1/1 38/4/1 51/6/1
f 37/1/1 26/2/1 53/3/1 38/4/1
f 27/1/1 29/2/1 40/3/1 39/4/1
f 29/5/1 31/1/1 41/4/1 40/6/1
f 31/5/1 43/1/1 42/4/1 41/6/1
f 43/5/1 45/1/1 44/4/1 42/6/1
f 45/5/1 47/1/1 46/4/1 44/6/1
f 47/5/1 48/1/1 54/4/1 46/6/1
f 48/5/1 35/1/1 49/4/1 54/6/1
f 35/5/1 51/1/1 50/4/1 49/6/1
f 51/5/1 38/1/1 52/4/1 50/6/1
f 38/1/1 53/2/1 56/3/1 52/4/1
f 39/1/1 40/2/1 59/3/1 58/4/1
f 40/5/1 41/1/1 60/4/1 59/6/1
f 41/5/1 42/1/1 61/4/1 60/6/1
f 42/5/1 44/1/1 62/4/1 61/6/1
f 44/5/1 46/1/1 64/4/1 62/6/1
f 46/5/1 54/1/1 65/4/1 64/6/1
f 54/5/1 49/1/1 66/4/1 65/6/1
f 49/5/1 50/1/1 55/4/1 66/6/1
f 50/5/1 52/1/1 67/4/1 55/6/1
f 52/1/1 56/2/1 68/3/1 67/4/1
f 58/1/1 59/2/1 69/3/1 57/4/1
f 59/5/1 60/1/1 70/4/1 69/6/1
f 60/5/1 61/1/1 71/4/1 70/6/1
f 61/5/1 62/1/1 72/4/1 71/6/1
f 62/5/1 64/1/1 63/4/1 72/6/1
f 64/5/1 65/1/1 73/4/1 63/6/1
f 65/5/1 66/1/1 75/4/1 73/6/1
f 66/5/1 55/1/1 78/4/1 75/6/1
f 55/5/1 67/1/1 80/4/1 78/6/1
f 67/1/1 68/2/1 81/3/1 80/4/1
f 57/1/1 69/2/1 85/3/1 83/4/1
f 69/5/1 70/1/1 87/4/1 85/6/1
f 70/5/1 71/1/1 88/4/1 87/6/1
f 71/5/1 72/1/1 90/4/1 88/6/1
f 72/5/1 63/1/1 92/4/1 90/6/1
f 63/5/1 73/1/1 74/4/1 92/6/1
f 73/5/1 75/1/1 76/4/1 74/6/1
f 75/5/1 78/1/1 77/4/1 76/6/1
f 78/5/1 80/1/1 79/4/1 77/6/1
f 80/1/1 81/2/1 82/3/1 79/4/1
f 83/1/1 85/2/1 84/3/1 98/4/1
f 85/5/1 87/1/1 86/4/1 84/6/1
f 87/5/1 88/1/1 89/4/1 86/6/1
f 88/5/1 90/1/1 91/4/1 89/6/1
f 90/5/1 92/1/1 93/4/1 91/6/1
f 92/5/1 74/1/1 94/4/1 93/6/1
f 74/5/1 76/1/1 95/4/1 94/6/1
f 76/5/1 77/1/1 101/4/1 95/6/1
f 77/5/1 79/1/1 103/4/1 101/6/1
f 79/1/1 82/2/1 96/3/1 103/4/1
f 98/1/1 84/2/1 107/3/1 97/4/1
f 84/5/1 86/1/1 108/4/1 107/6/1
f 86/5/1 89/1/1 111/4/1 108/6/1
f 89/5/1 91/1/1 113/4/1 111/6/1
f 91/5/1 93/1/1 99/4/1 113/6/1
f 93/5/1 94/1/1 116/4/1 99/6/1
f 94/5/1 95/1/1 100/4/1 116/6/1
f 95/5/1 101/1/1 102/4/1 100/6/1
f 101/5/1 103/1/1 120/4/1 102/6/1
f 103/1/1 96/2/1 104/3/1 120/4/1
f 97/1/1 107/2/1 106/3/1 105/4/1
f 107/1/1 108/2/1 109/3/1 106/4/1
f 108/1/1 111/2/1 110/3/1 109/4/1
f 111/1/1 113/2/1 112/3/1 110/4/1
f 113/1/1 99/2/1 114/3/1 112/4/1
f 99/1/1 116/2/1 115/3/1 114/4/1
f 116/1/1 100/2/1 117/3/1 115/4/1
f 100/1/1 102/2/1 118/3/1 117/4/1
f 102/1/1 120/2/1 119/3/1 118/4/1
f 120/1/1 104/2/1 121/3/1 119/4/1
f 27/2/2 136/7/2 137/8/2 28/3/2
f 117/2/3 158/7/3 157/8/3 115/3/3
f 53/2/4 139/7/4 140/8/4 56/3/4
f 110/2/3 154/7/3 153/8/3 109/3/3
f 98/2/2 149/7/2 146/8/2 83/3/2
f 58/2/2 142/7/2 138/8/2 39/3/2
f 7/2/5 126/7/5 127/8/5 8/3/5
f 119/2/3 160/7/3 159/8/3 118/3/3
f 114/2/3 156/7/3 155/8/3 112/3/3
f 1/2/5 122/7/5 123/8/5 3/3/5
f 28/2/2 137/7/2 134/8/2 17/3/2
f 81/2/4 144/7/4 145/8/4 82/3/4
f 82/2/4 145/7/4 147/8/4 96/3/4
f 115/2/3 157/7/3 156/8/3 114/3/3
f 17/2/2 134/7/2 122/8/2 1/3/2
f 56/2/4 140/7/4 143/8/4 68/3/4
f 9/2/5 128/7/5 129/8/5 12/3/5
f 16/2/4 133/7/4 135/8/4 26/3/4
f 5/2/5 124/7/5 125/8/5 6/3/5
f 118/2/3 159/7/3 158/8/3 117/3/3
f 3/2/5 123/7/5 124/8/5 5/3/5
f 8/2/5 127/7/5 128/8/5 9/3/5
f 97/2/2 148/7/2 149/8/2 98/3/2
f 12/2/5 129/7/5 130/8/5 13/3/5
f 68/2/4 143/7/4 144/8/4 81/3/4
f 57/2/2 141/7/2 142/8/2 58/3/2
f 96/2/4 147/7/4 150/8/4 104/3/4
f 14/2/5 131/7/5 132/8/5 15/3/5
f 26/2/4 135/7/4 139/8/4 53/3/4
f 121/2/3 161/7/3 160/8/3 119/3/3
f 106/2/3 152/7/3 151/8/3 105/3/3
f 15/2/4 132/7/4 133/8/4 16/3/4
f 104/2/4 150/7/4 161/8/4 121/3/4
f 83/2/2 146/7/2 141/8/2 57/3/2
f 105/2/2 151/7/2 148/8/2 97/3/2
f 39/2/2 138/7/2 136/8/2 27/3/2
f 112/2/3 155/7/3 154/8/3 110/3/3
f 13/2/5 130/7/5 131/8/5 14/3/5
f 6/2/5 125/7/5 126/8/5 7/3/5
f 109/2/3 153/7/3 152/8/3 106/3/3
f 126/2/5 166/7/5 167/8/5 127/3/5
f 131/2/5 171/7/5 172/8/5 132/3/5
f 145/2/4 185/7/4 187/8/4 147/3/4
f 128/2/5 168/7/5 169/8/5 129/3/5
f 132/2/4 172/7/4 173/8/4 133/3/4
f 147/2/4 187/7/4 190/8/4 150/3/4
f 129/2/5 169/7/5 170/8/5 130/3/5
f 136/2/2 176/7/2 177/8/2 137/3/2
f 152/2/3 192/7/3 191/8/3 151/3/3
f 130/2/5 170/7/5 171/8/5 131/3/5
f 141/2/2 181/7/2 182/8/2 142/3/2
f 151/2/2 191/7/2 188/8/2 148/3/2
f 137/2/2 177/7/2 174/8/2 134/3/2
f 144/2/4 184/7/4 185/8/4 145/3/4
f 153/2/3 193/7/3 192/8/3 152/3/3
f 133/2/4 173/7/4 175/8/4 135/3/4
f 148/2/2 188/7/2 189/8/2 149/3/2
f 154/2/3 194/7/3 193/8/3 153/3/3
f 135/2/4 175/7/4 179/8/4 139/3/4
f 155/2/3 195/7/3 194/8/3 154/3/3
f 156/2/3 196/7/3 195/8/3 155/3/3
f 138/2/2 178/7/2 176/8/2 136/3/2
f 158/2/3 198/7/3 197/8/3 157/3/3
f 157/2/3 197/7/3 196/8/3 156/3/3
f 139/2/4 179/7/4 180/8/4 140/3/4
f 160/2/3 200/7/3 199/8/3 159/3/3
f 159/2/3 199/7/3 198/8/3 158/3/3
f 142/2/2 182/7/2 178/8/2 138/3/2
f 122/2/5 162/7/5 163/8/5 123/3/5
f 161/2/3 201/7/3 200/8/3 160/3/3
f 140/2/4 180/7/4 183/8/4 143/3/4
f 134/2/2 174/7/2 162/8/2 122/3/2
f 150/2/4 190/7/4 201/8/4 161/3/4
f 143/2/4 183/7/4 184/8/4 144/3/4
f 123/2/5 163/7/5 164/8/5 124/3/5
f 124/2/5 164/7/5 165/8/5 125/3/5
f 146/2/2 186/7/2 181/8/2 141/3/2
f 125/2/5 165/7/5 166/8/5 126/3/5
f 127/2/5 167/7/5 168/8/5 128/3/5
f 149/2/2 189/7/2 186/8/2 146/3/2
f 171/2/5 211/7/5 212/8/5 172/3/5
f 185/2/4 225/7/4 227/8/4 187/3/4
f 168/2/5 208/7/5 209/8/5 169/3/5
f 172/2/4 212/7/4 213/8/4 173/3/4
f 187/2/4 227/7/4 230/8/4 190/3/4
f 169/2/5 209/7/5 210/8/5 170/3/5
f 176/2/2 216/7/2 217/8/2 177/3/2
f 192/2/3 232/7/3 231/8/3 191/3/3
f 170/2/5 210/7/5 211/8/5 171/3/5
f 181/2/2 221/7/2 222/8/2 182/3/2
f 191/2/2 231/7/2 228/8/2 188/3/2
f 177/2/2 217/7/2 214/8/2 174/3/2
f 184/2/4 224/7/4 225/8/4 185/3/4
f 193/2/3 233/7/3 232/8/3 192/3/3
f 173/2/4 213/7/4 215/8/4 175/3/4
f 188/2/2 228/7/2 229/8/2 189/3/2
f 194/2/3 234/7/3 233/8/3 193/3/3
f 175/2/4 215/7/4 219/8/4 179/3/4
f 195/2/3 235/7/3 234/8/3 194/3/3
f 196/2/3 236/7/3 235/8/3 195/3/3
f 178/2/2 218/7/2 216/8/2 176/3/2
f 198/2/3 238/7/3 237/8/3 197/3/3
f 197/2/3 237/7/3 236/8/3 196/3/3
f 179/2/4 219/7/4 220/8/4 180/3/4
f 200/2/3 240/7/3 239/8/3 199/3/3
f 199/2/3 239/7/3 238/8/3 198/3/3
f 182/2/2 222/7/2 218/8/2 178/3/2
f 162/2/5 202/7/5 203/8/5 163/3/5
f 201/2/3 241/7/3 240/8/3 200/3/3
f 180/2/4 220/7/4 223/8/4 183/3/4
f 174/2/2 214/7/2 202/8/2 162/3/2
f 190/2/4 230/7/4 241/8/4 201/3/4
f 183/2/4 223/7/4 224/8/4 184/3/4
f 163/2/5 203/7/5 204/8/5 164/3/5
f 164/2/5 204/7/5 205/8/5 165/3/5
f 186/2/2 226/7/2 221/8/2 181/3/2
f 165/2/5 205/7/5 206/8/5 166/3/5
f 167/2/5 207/7/5 208/8/5 168/3/5
f 189/2/2 229/7/2 226/8/2 186/3/2
f 166/2/5 206/7/5 207/8/5 167/3/5
f 225/2/4 265/7/4 267/8/4 227/3/4
f 208/2/5 248/7/5 249/8/5 209/3/5
f 212/2/4 252/7/4 253/8/4 213/3/4
f 227/2/4 267/7/4 270/8/4 230/3/4
f 209/2/5 249/7/5 250/8/5 210/3/5
f 216/2/2 256/7/2 257/8/2 217/3/2
f 232/2/3 272/7/3 271/8/3 231/3/3
f 210/2/5 250/7/5 251/8/5 211/3/5
f 221/2/2 261/7/2 262/8/2 222/3/2
f 231/2/2 271/7/2 268/8/2 228/3/2
f 217/2/2 257/7/2 254/8/2 214/3/2
f 224/2/4 264/7/4 265/8/4 225/3/4
f 233/2/3 273/7/3 272/8/3 232/3/3
f 213/2/4 253/7/4 255/8/4 215/3/4
f 228/2/2 268/7/2 269/8/2 229/3/2
f 234/2/3 274/7/3 273/8/3 233/3/3
f 215/2/4 255/7/4 259/8/4 219/3/4
f 235/2/3 275/7/3 274/8/3 234/3/3
f 236/2/3 276/7/3 275/8/3 235/3/3
f 218/2/2 258/7/2 256/8/2 216/3/2
f 238/2/3 278/7/3 277/8/3 237/3/3
f 237/2/3 277/7/3 276/8/3 236/3/3
f 219/2/4 259/7/4 260/8/4 220/3/4
f 240/2/3 280/7/3 279/8/3 239/3/3
f 239/2/3 279/7/3 278/8/3 238/3/3
f 222/2/2 262/7/2 258/8/2 218/3/2
f 202/2/5 242/7/5 243/8/5 203/3/5
f 241/2/3 281/7/3 280/8/3 240/3/3
f 220/2/4 260/7/4 263/8/4 223/3/4
f 214/2/2 254/7/2 242/8/2 202/3/2
f 230/2/4 270/7/4 281/8/4 241/3/4
f 223/2/4 263/7/4 264/8/4 224/3/4
f 203/2/5 243/7/5 244/8/5 204/3/5
f 204/2/5 244/7/5 245/8/5 205/3/5
f 226/2/2 266/7/2 261/8/2 221/3/2
f 205/2/5 245/7/5 246/8/5 206/3/5
f 207/2/5 247/7/5 248/8/5 208/3/5
f 229/2/2 269/7/2 266/8/2 226/3/2
f 206/2/5 246/7/5 247/8/5 207/3/5
f 211/2/5 251/7/5 252/8/5 212/3/5
f 248/2/5 377/7/5 379/8/5 249/3/5
f 252/2/4 409/7/4 411/8/4 253/3/4
f 267/2/4 427/7/4 287/8/4 270/3/4
f 249/2/5 379/7/5 380/8/5 250/3/5
f 256/2/2 284/7/2 298/8/2 257/3/2
f 272/2/3 289/7/3 288/8/3 271/3/3
f 250/2/5 380/7/5 283/8/5 251/3/5
f 261/2/2 285/7/2 314/8/2 262/3/2
f 271/2/2 288/7/2 327/8/2 268/3/2
f 257/2/2 298/7/2 302/8/2 254/3/2
f 264/2/4 412/7/4 420/8/4 265/3/4
f 273/2/3 290/7/3 289/8/3 272/3/3
f 253/2/4 411/7/4 397/8/4 255/3/4
f 268/2/2 327/7/2 322/8/2 269/3/2
f 274/2/3 291/7/3 290/8/3 273/3/3
f 255/2/4 397/7/4 398/8/4 259/3/4
f 275/2/3 292/7/3 291/8/3 274/3/3
f 276/2/3 293/7/3 292/8/3 275/3/3
f 258/2/2 311/7/2 284/8/2 256/3/2
f 278/2/3 474/7/3 294/8/3 277/3/3
f 277/2/3 294/7/3 293/8/3 276/3/3
f 259/2/4 398/7/4 403/8/4 260/3/4
f 280/2/3 295/7/3 470/8/3 279/3/3
f 279/2/3 470/7/3 474/8/3 278/3/3
f 262/2/2 314/7/2 311/8/2 258/3/2
f 242/2/5 345/7/5 369/8/5 243/3/5
f 281/2/3 442/7/3 295/8/3 280/3/3
f 260/2/4 403/7/4 413/8/4 263/3/4
f 254/2/2 302/7/2 345/8/2 242/3/2
f 270/2/4 287/7/4 442/8/4 281/3/4
f 263/2/4 413/7/4 412/8/4 264/3/4
f 243/2/5 369/7/5 372/8/5 244/3/5
f 244/2/5 372/7/5 373/8/5 245/3/5
f 266/2/2 286/7/2 285/8/2 261/3/2
f 245/2/5 373/7/5 375/8/5 246/3/5
f 247/2/5 282/7/5 377/8/5 248/3/5
f 269/2/2 322/7/2 286/8/2 266/3/2
f 246/2/5 375/7/5 282/8/5 247/3/5
f 251/2/5 283/7/5 409/8/5 252/3/5
f 265/2/4 420/7/4 427/8/4 267/3/4
f 304/1/1 298/2/1 284/3/1 300/4/1
f 305/5/1 304/1/1 300/4/1 308/6/1
f 297/5/1 305/1/1 308/4/1 296/6/1
f 300/1/1 284/2/1 311/3/1 309/4/1
f 308/5/1 300/1/1 309/4/1 307/6/1
f 296/5/1 308/1/1 307/4/1 306/6/1
f 343/1/1 345/2/1 302/3/1 299/4/1
f 342/5/1 343/1/1 299/4/1 303/6/1
f 341/5/1 342/1/1 303/4/1 301/6/1
f 299/1/1 302/2/1 298/3/1 304/4/1
f 303/5/1 299/1/1 304/4/1 305/6/1
f 301/5/1 303/1/1 305/4/1 297/6/1
f 306/5/1 307/1/1 310/4/1 312/6/1
f 307/5/1 309/1/1 313/4/1 310/6/1
f 309/1/1 311/2/1 314/3/1 313/4/1
f 312/5/1 310/1/1 318/4/1 315/6/1
f 310/5/1 313/1/1 320/4/1 318/6/1
f 313/1/1 314/2/1 285/3/1 320/4/1
f 315/5/1 318/1/1 317/4/1 316/6/1
f 318/5/1 320/1/1 319/4/1 317/6/1
f 320/1/1 285/2/1 286/3/1 319/4/1
f 316/5/1 317/1/1 324/4/1 321/6/1
f 317/5/1 319/1/1 326/4/1 324/6/1
f 319/1/1 286/2/1 322/3/1 326/4/1
f 321/5/1 324/1/1 325/4/1 323/6/1
f 324/5/1 326/1/1 329/4/1 325/6/1
f 326/1/1 322/2/1 327/3/1 329/4/1
f 323/5/1 325/1/1 328/4/1 487/6/1
f 325/5/1 329/1/1 483/4/1 328/6/1
f 329/1/1 327/2/1 288/3/1 483/4/1
f 330/5/1 331/1/1 337/4/1 334/6/1
f 331/5/1 332/1/1 339/4/1 337/6/1
f 332/5/1 333/1/1 335/4/1 339/6/1
f 334/5/1 337/1/1 338/4/1 336/6/1
f 337/5/1 339/1/1 344/4/1 338/6/1
f 339/5/1 335/1/1 340/4/1 344/6/1
f 336/5/1 338/1/1 342/4/1 341/6/1
f 338/5/1 344/1/1 343/4/1 342/6/1
f 344/1/1 340/2/1 345/3/1 343/4/1
f 333/5/1 351/1/1 350/4/1 335/6/1
f 351/5/1 353/1/1 352/4/1 350/6/1
f 353/5/1 354/1/1 355/4/1 352/6/1
f 354/5/1 356/1/1 357/4/1 355/6/1
f 356/5/1 358/1/1 359/4/1 357/6/1
f 358/5/1 346/1/1 360/4/1 359/6/1
f 346/5/1 347/1/1 361/4/1 360/6/1
f 347/5/1 348/1/1 365/4/1 361/6/1
f 348/5/1 349/1/1 367/4/1 365/6/1
f 349/5/1 382/1/1 362/4/1 367/6/1
f 335/5/1 350/1/1 370/4/1 340/6/1
f 350/5/1 352/1/1 371/4/1 370/6/1
f 352/5/1 355/1/1 374/4/1 371/6/1
f 355/5/1 357/1/1 376/4/1 374/6/1
f 357/5/1 359/1/1 363/4/1 376/6/1
f 359/5/1 360/1/1 378/4/1 363/6/1
f 360/5/1 361/1/1 364/4/1 378/6/1
f 361/5/1 365/1/1 366/4/1 364/6/1
f 365/5/1 367/1/1 381/4/1 366/6/1
f 367/5/1 362/1/1 368/4/1 381/6/1
f 340/1/1 370/2/1 369/3/1 345/4/1
f 370/1/1 371/2/1 372/3/1 369/4/1
f 371/1/1 374/2/1 373/3/1 372/4/1
f 374/1/1 376/2/1 375/3/1 373/4/1
f 376/1/1 363/2/1 282/3/1 375/4/1
f 363/1/1 378/2/1 377/3/1 282/4/1
f 378/1/1 364/2/1 379/3/1 377/4/1
f 364/1/1 366/2/1 380/3/1 379/4/1
f 366/1/1 381/2/1 283/3/1 380/4/1
f 381/1/1 368/2/1 409/3/1 283/4/1
f 382/5/1 384/1/1 383/4/1 362/6/1
f 384/5/1 386/1/1 385/4/1 383/6/1
f 386/5/1 387/1/1 388/4/1 385/6/1
f 362/5/1 383/1/1 389/4/1 368/6/1
f 383/5/1 385/1/1 390/4/1 389/6/1
f 385/5/1 388/1/1 391/4/1 390/6/1
f 368/1/1 389/2/1 407/3/1 409/4/1
f 389/5/1 390/1/1 405/4/1 407/6/1
f 390/5/1 391/1/1 404/4/1 405/6/1
f 396/5/1 394/1/1 401/4/1 402/6/1
f 398/1/1 396/2/1 402/3/1 403/4/1
f 393/5/1 392/1/1 399/4/1 394/6/1
f 401/5/1 400/1/1 416/4/1 415/6/1
f 402/5/1 401/1/1 415/4/1 414/6/1
f 403/1/1 402/2/1 414/3/1 413/4/1
f 405/5/1 404/1/1 410/4/1 406/6/1
f 407/5/1 405/1/1 406/4/1 408/6/1
f 409/1/1 407/2/1 408/3/1 411/4/1
f 397/1/1 395/2/1 396/3/1 398/4/1
f 406/5/1 410/1/1 392/4/1 393/6/1
f 408/5/1 406/1/1 393/4/1 395/6/1
f 395/5/1 393/1/1 394/4/1 396/6/1
f 394/5/1 399/1/1 400/4/1 401/6/1
f 411/1/1 408/2/1 395/3/1 397/4/1
f 413/1/1 414/2/1 417/3/1 412/4/1
f 414/5/1 415/1/1 418/4/1 417/6/1
f 415/5/1 416/1/1 419/4/1 418/6/1
f 412/1/1 417/2/1 422/3/1 420/4/1
f 417/5/1 418/1/1 424/4/1 422/6/1
f 418/5/1 419/1/1 425/4/1 424/6/1
f 420/1/1 422/2/1 421/3/1 427/4/1
f 422/5/1 424/1/1 423/4/1 421/6/1
f 424/5/1 425/1/1 426/4/1 423/6/1
f 427/1/1 421/2/1 428/3/1 287/4/1
f 421/5/1 423/1/1 429/4/1 428/6/1
f 423/5/1 426/1/1 431/4/1 429/6/1
f 287/1/1 428/2/1 440/3/1 442/4/1
f 428/5/1 429/1/1 438/4/1 440/6/1
f 429/5/1 431/1/1 430/4/1 438/6/1
f 433/5/1 432/1/1 437/4/1 434/6/1
f 438/5/1 430/1/1 443/4/1 439/6/1
f 440/5/1 438/1/1 439/4/1 441/6/1
f 442/1/1 440/2/1 441/3/1 469/4/1
f 451/5/1 435/1/1 436/4/1 476/6/1
f 439/5/1 443/1/1 432/4/1 433/6/1
f 441/5/1 439/1/1 433/4/1 435/6/1
f 435/5/1 433/1/1 434/4/1 436/6/1
f 469/5/1 441/1/1 435/4/1 451/6/1
f 472/5/1 451/1/1 476/4/1 457/6/1
f 473/5/1 472/1/1 457/4/1 475/6/1
f 445/5/1 473/1/1 475/4/1 444/6/1
f 462/5/1 445/1/1 444/4/1 453/6/1
f 463/5/1 462/1/1 453/4/1 454/6/1
f 465/5/1 463/1/1 454/4/1 455/6/1
f 446/5/1 465/1/1 455/4/1 456/6/1
f 447/5/1 446/1/1 456/4/1 448/6/1
f 295/1/1 442/2/1 469/3/1 452/4/1
f 470/1/1 295/2/1 452/3/1 471/4/1
f 474/1/1 470/2/1 471/3/1 458/4/1
f 294/1/1 474/2/1 458/3/1 459/4/1
f 293/1/1 294/2/1 459/3/1 464/4/1
f 292/1/1 293/2/1 464/3/1 466/4/1
f 291/1/1 292/2/1 466/3/1 467/4/1
f 290/1/1 291/2/1 467/3/1 460/4/1
f 289/1/1 290/2/1 460/3/1 461/4/1
f 288/1/1 289/2/1 461/3/1 468/4/1
f 479/5/1 449/1/1 450/4/1 489/6/1
f 452/5/1 469/1/1 451/4/1 472/6/1
f 471/5/1 452/1/1 472/4/1 473/6/1
f 458/5/1 471/1/1 473/4/1 445/6/1
f 459/5/1 458/1/1 445/4/1 462/6/1
f 464/5/1 459/1/1 462/4/1 463/6/1
f 466/5/1 464/1/1 463/4/1 465/6/1
f 467/5/1 466/1/1 465/4/1 446/6/1
f 460/5/1 467/1/1 446/4/1 447/6/1
f 461/5/1 460/1/1 447/4/1 449/6/1
f 449/5/1 447/1/1 448/4/1 450/6/1
f 468/5/1 461/1/1 449/4/1 479/6/1
f 485/5/1 479/1/1 489/4/1 481/6/1
f 486/5/1 485/1/1 481/4/1 488/6/1
f 478/5/1 486/1/1 488/4/1 477/6/1
f 483/1/1 288/2/1 468/3/1 480/4/1
f 328/5/1 483/1/1 480/4/1 484/6/1
f 487/5/1 328/1/1 484/4/1 482/6/1
f 480/5/1 468/1/1 479/4/1 485/6/1
f 484/5/1 480/1/1 485/4/1 486/6/1
f 482/5/1 484/1/1 486/4/1 478/6/1
